<svg version="1.1" id="Layer_1" xmlns="http://www.w3.org/2000/svg" xmlns:xlink="http://www.w3.org/1999/xlink" x="0px" y="0px"
	 width="100%" viewBox="0 0 1911 2048" enable-background="new 0 0 1911 2048" xml:space="preserve">
<path fill="#000000" opacity="1.000000" stroke="none" 
	d="
M1912.000000,791.000000 
	C1912.000000,1210.261475 1912.000000,1629.522949 1912.000000,2049.000000 
	C1549.967285,2049.000000 1187.934570,2049.000000 825.118286,2048.750000 
	C827.114136,2046.609253 829.799561,2044.559448 832.689026,2042.855591 
	C845.477173,2035.314453 858.289368,2027.812866 871.158020,2020.410278 
	C887.382690,2011.077026 903.690979,2001.889160 919.922852,1992.568359 
	C927.264282,1988.352539 934.460510,1983.883423 941.809937,1979.682129 
	C949.219360,1975.446655 956.793152,1971.498291 964.195068,1967.250244 
	C977.614807,1959.548340 990.943237,1951.687622 1004.343994,1943.952393 
	C1011.329346,1939.920288 1018.428894,1936.085571 1025.398315,1932.026855 
	C1029.860596,1929.428223 1034.106445,1926.456543 1038.579102,1923.877197 
	C1046.814087,1919.128174 1055.176880,1914.600952 1063.426392,1909.876465 
	C1071.560181,1905.218262 1079.577393,1900.356201 1087.729492,1895.731323 
	C1091.756348,1893.446777 1094.166504,1891.010498 1094.153564,1885.594727 
	C1093.939209,1795.958618 1094.000977,1706.322021 1094.000977,1616.685425 
	C1094.000977,1604.689453 1093.896973,1592.691650 1094.110229,1580.699463 
	C1094.143188,1578.841797 1095.111450,1576.151367 1096.523438,1575.300659 
	C1108.944092,1567.818115 1121.535034,1560.615845 1134.134155,1553.433350 
	C1141.474243,1549.248901 1148.971191,1545.339600 1156.309326,1541.151855 
	C1170.351074,1533.138672 1184.327026,1525.010498 1198.335571,1516.939453 
	C1204.746948,1513.245728 1211.220459,1509.657227 1217.578613,1505.874634 
	C1228.007568,1499.670410 1238.260742,1493.164062 1248.784180,1487.126953 
	C1258.519653,1481.541870 1268.658325,1476.655518 1278.352905,1471.004150 
	C1289.161377,1464.703613 1299.581421,1457.739502 1310.337158,1451.344360 
	C1318.332031,1446.590454 1326.591797,1442.281982 1334.734985,1437.777710 
	C1342.203735,1433.646362 1349.660156,1429.492188 1357.149658,1425.398926 
	C1362.740356,1422.343384 1366.287842,1419.131592 1366.257568,1411.325684 
	C1365.867798,1310.860840 1366.000977,1210.394165 1365.992798,1109.927856 
	C1365.992676,1107.932739 1365.883789,1105.937500 1365.889526,1103.570557 
	C1365.515259,1102.549927 1365.225708,1101.618164 1364.615356,1101.297729 
	C1360.069824,1098.911255 1355.338989,1096.857666 1350.895508,1094.300903 
	C1340.168213,1088.128662 1329.627075,1081.632935 1318.897339,1075.465088 
	C1306.073242,1068.093140 1293.070923,1061.031494 1280.258423,1053.640015 
	C1269.333740,1047.337646 1258.617310,1040.675293 1247.714478,1034.334229 
	C1241.358643,1030.637817 1234.771973,1027.340698 1228.369751,1023.721313 
	C1216.773438,1017.165405 1205.229736,1010.515930 1193.678467,1003.880676 
	C1184.919678,998.849548 1176.163696,993.812988 1167.442017,988.717896 
	C1158.513306,983.501831 1149.652222,978.169495 1140.717896,972.963013 
	C1125.194092,963.916565 1109.636719,954.927856 1094.054688,945.453003 
	C1094.011108,915.501038 1093.996216,886.010925 1094.002930,856.520813 
	C1094.019775,782.046326 1094.046387,707.571838 1094.408447,633.231689 
	C1096.204590,634.127014 1097.695679,634.829773 1099.113403,635.658020 
	C1110.404541,642.254639 1121.650513,648.928833 1132.971558,655.473389 
	C1145.360962,662.635559 1157.838501,669.644836 1170.234985,676.794861 
	C1181.276245,683.163208 1192.257935,689.634827 1203.268188,696.057007 
	C1210.684448,700.382874 1218.103394,704.704407 1225.523804,709.023193 
	C1229.531372,711.355774 1233.534546,713.696350 1237.557617,716.002258 
	C1244.494629,719.978271 1251.486572,723.860535 1258.379883,727.910828 
	C1265.963501,732.366699 1273.402222,737.070984 1281.014404,741.476196 
	C1288.417236,745.760193 1295.989746,749.749817 1303.433838,753.963806 
	C1313.416138,759.614624 1323.373047,765.311584 1333.291382,771.073914 
	C1341.125732,775.625549 1348.880127,780.314636 1356.679810,784.926208 
	C1363.489136,788.952271 1370.250366,793.065125 1377.143188,796.943420 
	C1387.707153,802.887268 1398.446655,808.521912 1408.962280,814.548340 
	C1419.843750,820.784302 1430.503174,827.406433 1441.341431,833.719421 
	C1450.838745,839.251404 1460.470215,844.552673 1470.004517,850.021790 
	C1480.936768,856.292786 1491.820068,862.648743 1502.738525,868.943665 
	C1508.699829,872.380554 1514.745605,875.673828 1520.652710,879.200562 
	C1528.718506,884.016235 1536.594849,889.154663 1544.728394,893.849854 
	C1551.431763,897.719299 1558.490356,900.971497 1565.214355,904.807861 
	C1575.622803,910.746216 1585.862061,916.980469 1596.207764,923.029602 
	C1604.319946,927.772644 1612.440063,932.505249 1620.640625,937.092529 
	C1626.676270,940.468689 1632.847656,943.602600 1639.314209,946.813721 
	C1647.566284,942.466614 1655.532593,938.272095 1663.341187,933.802124 
	C1672.637817,928.480225 1681.812500,922.944153 1691.015625,917.459961 
	C1701.154419,911.418213 1711.210815,905.235962 1721.404663,899.288879 
	C1731.449585,893.428772 1741.642578,887.822876 1751.731323,882.037170 
	C1759.565063,877.544556 1767.278687,872.839844 1775.154053,868.422607 
	C1785.147583,862.817383 1795.353516,857.585571 1805.277710,851.863220 
	C1815.132690,846.180847 1824.679688,839.966858 1834.493042,834.209534 
	C1845.904907,827.514343 1857.486206,821.108276 1868.944702,814.491699 
	C1881.200806,807.414551 1893.370239,800.186707 1905.654663,793.159546 
	C1907.558472,792.070435 1909.874512,791.701721 1912.000000,791.000000 
z"/>
<path fill="#000000" opacity="1.000000" stroke="none" 
	d="
M815.000000,2049.000000 
	C543.724426,2049.000000 272.448914,2049.000000 1.000000,2049.000000 
	C1.000000,1682.635742 1.000000,1316.271484 1.340120,949.185547 
	C3.097177,948.805908 4.695703,948.836426 5.902116,949.539612 
	C15.063931,954.879944 24.116293,960.407776 33.266266,965.768799 
	C45.105206,972.705322 56.998402,979.549316 68.878830,986.414795 
	C71.552620,987.959961 74.319267,989.348389 76.958191,990.949097 
	C84.553322,995.556091 92.006729,1000.404846 99.696022,1004.846680 
	C112.375298,1012.171143 125.221306,1019.206360 137.947952,1026.449707 
	C145.886505,1030.967896 153.718506,1035.672852 161.627472,1040.243652 
	C172.547897,1046.554810 183.468933,1052.865967 194.441315,1059.085938 
	C201.925217,1063.328491 209.576355,1067.279419 217.010834,1071.604736 
	C227.220901,1077.545044 237.248062,1083.799194 247.444763,1089.762939 
	C256.233093,1094.902832 265.149078,1099.824585 274.353241,1104.798096 
	C283.139252,1099.988892 291.623444,1095.298340 300.012329,1090.443115 
	C313.974121,1082.362671 327.850220,1074.134033 341.812073,1066.053589 
	C348.225037,1062.342163 354.811920,1058.930542 361.214417,1055.201904 
	C365.817719,1052.520996 370.163635,1049.397827 374.771545,1046.725586 
	C382.294617,1042.362793 390.019836,1038.346191 397.510345,1033.930054 
	C407.822418,1027.850464 417.875641,1021.325623 428.262451,1015.380554 
	C438.078644,1009.762146 448.262817,1004.789795 458.136749,999.268005 
	C467.163544,994.219788 476.005035,988.838928 484.902893,983.562073 
	C491.358459,979.733704 497.769562,975.830505 504.206909,971.971375 
	C508.053101,969.665588 511.886139,967.336304 515.771362,965.097717 
	C520.207153,962.541992 524.646912,959.985718 529.171326,957.593079 
	C534.711182,954.663513 540.340637,951.903259 545.959229,949.533325 
	C545.991150,1261.479736 545.995117,1572.962524 545.999023,1884.445435 
	C545.999023,1885.778687 545.655029,1887.235107 546.077637,1888.417358 
	C546.772644,1890.361694 547.493591,1892.868896 549.026978,1893.844360 
	C556.422791,1898.548584 564.074524,1902.853882 571.672424,1907.236572 
	C579.649841,1911.838257 587.697693,1916.318115 595.661743,1920.942505 
	C602.400696,1924.855469 609.002991,1929.006104 615.777161,1932.855469 
	C623.518616,1937.254272 631.465698,1941.293701 639.173218,1945.749146 
	C648.856750,1951.347168 658.304626,1957.354126 668.007935,1962.916382 
	C678.241943,1968.782959 688.736938,1974.194214 698.970398,1980.061646 
	C709.405762,1986.044678 719.620850,1992.410645 730.007690,1998.480103 
	C740.767090,2004.766968 751.587646,2010.950928 762.437317,2017.081055 
	C769.794556,2021.238037 777.302551,2025.128906 784.644470,2029.311890 
	C793.617065,2034.423950 802.526550,2039.651001 811.361023,2044.997314 
	C812.839844,2045.892212 813.800110,2047.644165 815.000000,2049.000000 
z"/>
<path fill="#F8BF3C" opacity="1.000000" stroke="none" 
	d="
M1088.000000,0.999991 
	C1091.030640,1.000000 1094.061157,1.000000 1097.212646,1.251499 
	C1101.886475,4.504541 1106.297607,7.754413 1111.021973,10.456137 
	C1120.942627,16.129391 1131.118652,21.357311 1141.020020,27.062593 
	C1150.817139,32.707783 1160.324219,38.855003 1170.103394,44.532646 
	C1186.375610,53.980152 1202.773682,63.211006 1219.098877,72.567657 
	C1227.862671,77.590576 1236.570068,82.712006 1245.331177,87.739464 
	C1252.021240,91.578461 1258.776978,95.303009 1265.466064,99.143562 
	C1278.707031,106.745918 1291.944946,114.354164 1305.138794,122.037689 
	C1312.224487,126.164040 1319.206665,130.467682 1326.254028,134.660172 
	C1330.148193,136.976822 1334.048584,139.286392 1338.002075,141.499374 
	C1348.477051,147.362915 1359.069946,153.021347 1369.446045,159.053894 
	C1376.838989,163.352051 1383.803589,168.393173 1391.234497,172.618546 
	C1401.049072,178.199295 1411.273315,183.062027 1421.062988,188.683502 
	C1431.686646,194.783844 1441.882080,201.630005 1452.503662,207.734100 
	C1465.389893,215.139557 1478.586060,222.003967 1491.535400,229.302414 
	C1500.689453,234.461838 1509.599609,240.052170 1518.720947,245.271530 
	C1529.869019,251.650604 1541.198120,257.714996 1552.309326,264.156433 
	C1561.218018,269.321106 1569.849976,274.961456 1578.727905,280.181213 
	C1590.413940,287.052032 1602.202881,293.748962 1613.982788,300.458893 
	C1620.270508,304.040436 1626.689209,307.393890 1632.947876,311.024170 
	C1643.960938,317.412170 1654.850952,324.012695 1665.878906,330.374359 
	C1674.893799,335.574707 1684.084717,340.469604 1693.107056,345.657532 
	C1704.434814,352.171143 1715.683228,358.823517 1726.939209,365.461426 
	C1731.263428,368.011597 1735.487671,370.731049 1739.804077,373.294983 
	C1746.985229,377.560486 1754.146606,381.864105 1761.420654,385.966797 
	C1771.035400,391.389679 1780.839111,396.480927 1790.401123,401.993042 
	C1803.506714,409.547913 1816.396484,417.476807 1829.499146,425.036896 
	C1843.094116,432.881134 1856.888794,440.379181 1870.489868,448.213135 
	C1880.572510,454.020386 1890.447510,460.187225 1900.492920,466.060516 
	C1904.214111,468.236176 1908.157837,470.031342 1912.000000,472.000000 
	C1912.000000,472.444458 1912.000000,472.888885 1911.648071,473.720703 
	C1910.529297,474.426727 1909.715698,474.664490 1909.002075,475.075684 
	C1871.946045,496.427094 1834.880249,517.761719 1797.854492,539.165466 
	C1744.835449,569.814453 1691.846558,600.515076 1638.524902,631.065186 
	C1631.998657,627.379395 1625.783081,623.837952 1619.587280,620.262207 
	C1569.841797,591.553162 1520.098755,562.839783 1470.357300,534.123596 
	C1405.769043,496.836060 1341.180542,459.548615 1276.596558,422.253601 
	C1223.388428,391.527679 1170.200317,360.767151 1116.967285,330.084534 
	C1109.058472,325.526062 1100.951172,321.311707 1092.572144,316.955505 
	C1090.863525,317.599274 1089.463013,318.129272 1088.181641,318.866150 
	C1059.168701,335.549408 1030.152832,352.227753 1001.169861,368.962738 
	C939.311218,404.680237 877.470886,440.429321 815.622986,476.165405 
	C779.437500,497.073669 743.254761,517.986816 707.065430,538.888428 
	C676.643250,556.459167 646.218506,574.025696 615.785278,591.577271 
	C579.727356,612.372742 543.650696,633.135681 507.597992,653.940125 
	C476.592102,671.832214 445.614594,689.773438 414.613281,707.673462 
	C380.872559,727.155212 347.140503,746.652161 313.360046,766.064880 
	C300.230194,773.610291 286.978424,780.943604 273.456482,788.233276 
	C260.405060,780.854004 247.638077,773.686401 234.961411,766.362366 
	C199.691299,745.984863 164.469650,725.523438 129.208038,705.131165 
	C95.509651,685.643127 61.811226,666.154724 28.054466,646.768066 
	C19.147081,641.652527 10.024035,636.912476 1.000010,632.000000 
	C1.000000,631.250000 1.000000,630.500000 1.381164,629.374634 
	C5.852039,626.831360 10.020520,624.798706 14.016948,622.470642 
	C26.976002,614.921875 39.809364,607.155884 52.809502,599.679382 
	C66.476929,591.819092 80.338181,584.295837 94.005730,576.435791 
	C103.990204,570.693909 113.750076,564.562744 123.698128,558.755981 
	C133.874542,552.815857 144.177719,547.093384 154.388535,541.211609 
	C161.918640,536.874023 169.334488,532.336060 176.903275,528.068237 
	C183.709671,524.230347 190.758850,520.818054 197.517166,516.900879 
	C211.060562,509.051270 224.415894,500.876862 237.968811,493.044098 
	C247.960144,487.269684 258.196899,481.921326 268.224030,476.207153 
	C279.423248,469.825073 290.532440,463.283691 301.635956,456.735535 
	C308.673584,452.585175 315.634735,448.304932 322.619720,444.065643 
	C326.883362,441.478027 331.030609,438.681488 335.399536,436.287964 
	C345.102844,430.971985 354.979370,425.970581 364.654938,420.605896 
	C370.656586,417.278229 376.376617,413.446991 382.299408,409.971832 
	C391.135681,404.787231 400.029053,399.699554 408.916779,394.603149 
	C420.458649,387.984833 432.059326,381.467896 443.555176,374.770813 
	C450.003357,371.014252 456.246765,366.907684 462.662811,363.094055 
	C470.124603,358.658936 477.634369,354.300781 485.197906,350.041626 
	C491.907227,346.263489 498.814331,342.830902 505.464691,338.955078 
	C518.703674,331.239410 531.747559,323.187622 545.018921,315.529175 
	C558.534424,307.729828 572.292236,300.350525 585.819946,292.571655 
	C595.947205,286.748199 605.825073,280.492645 615.909912,274.593689 
	C626.776489,268.237457 637.770508,262.099457 648.678894,255.814102 
	C655.336792,251.977844 661.872803,247.926239 668.582825,244.185318 
	C675.408203,240.380081 682.456055,236.972137 689.260437,233.131424 
	C693.630310,230.664871 697.664124,227.610306 701.975159,225.030853 
	C711.233521,219.491257 720.488403,213.936005 729.903687,208.671555 
	C739.817200,203.128571 750.040833,198.135468 759.898499,192.498901 
	C769.604431,186.949005 778.916931,180.713257 788.593201,175.108383 
	C799.383850,168.858017 810.450745,163.086212 821.287537,156.913330 
	C836.305420,148.358780 851.214844,139.614044 866.182068,130.970383 
	C877.438965,124.469398 888.755066,118.069923 899.970093,111.497757 
	C914.849731,102.778114 929.647400,93.918648 944.503052,85.157921 
	C947.267029,83.527977 950.193481,82.172722 952.949890,80.531166 
	C960.992798,75.741325 968.904602,70.725616 977.027527,66.077614 
	C983.567749,62.335285 990.453064,59.194973 996.983887,55.437626 
	C1006.994019,49.678524 1016.802551,43.570271 1026.750122,37.700912 
	C1035.563599,32.500771 1044.393921,27.324173 1053.319214,22.319767 
	C1063.388184,16.674070 1073.620239,11.318159 1083.659546,5.621157 
	C1085.415161,4.624866 1086.568481,2.567360 1088.000000,0.999991 
z"/>
<path fill="#E55B2D" opacity="1.000000" stroke="none" 
	d="
M815.416626,2049.000000 
	C813.800110,2047.644165 812.839844,2045.892212 811.361023,2044.997314 
	C802.526550,2039.651001 793.617065,2034.423950 784.644470,2029.311890 
	C777.302551,2025.128906 769.794556,2021.238037 762.437317,2017.081055 
	C751.587646,2010.950928 740.767090,2004.766968 730.007690,1998.480103 
	C719.620850,1992.410645 709.405762,1986.044678 698.970398,1980.061646 
	C688.736938,1974.194214 678.241943,1968.782959 668.007935,1962.916382 
	C658.304626,1957.354126 648.856750,1951.347168 639.173218,1945.749146 
	C631.465698,1941.293701 623.518616,1937.254272 615.777161,1932.855469 
	C609.002991,1929.006104 602.400696,1924.855469 595.661743,1920.942505 
	C587.697693,1916.318115 579.649841,1911.838257 571.672424,1907.236572 
	C564.074524,1902.853882 556.422791,1898.548584 549.026978,1893.844360 
	C547.493591,1892.868896 546.772644,1890.361694 546.077637,1888.417358 
	C545.655029,1887.235107 545.999023,1885.778687 545.999023,1884.445435 
	C545.995117,1572.962524 545.991150,1261.479736 546.040955,949.190918 
	C547.341858,947.121033 548.391113,945.523926 549.867981,944.647034 
	C560.028320,938.614258 570.259644,932.699951 580.502319,926.807007 
	C623.493286,902.073181 666.523193,877.407104 709.486267,852.625000 
	C744.376404,832.499817 779.187378,812.237488 814.054321,792.072083 
	C815.539856,791.212891 817.236633,790.718933 819.614014,789.731140 
	C819.761414,792.872803 819.959900,795.134033 819.960266,797.395203 
	C819.975647,897.181213 819.967590,996.967163 820.008667,1096.753174 
	C820.009644,1099.196167 820.533203,1101.638916 821.078247,1104.304810 
	C826.649658,1107.639893 831.947388,1110.766479 837.263428,1113.861572 
	C866.445251,1130.851318 895.584961,1147.914062 924.829224,1164.795654 
	C954.080688,1181.681152 983.448181,1198.365479 1012.746338,1215.170166 
	C1039.472534,1230.499634 1066.173950,1245.872314 1092.900146,1261.680176 
	C1092.930420,1365.129761 1092.948975,1468.125366 1092.943848,1571.120850 
	C1092.943848,1572.512817 1092.643799,1573.904907 1092.401123,1576.016724 
	C1001.596924,1523.628662 911.485840,1471.640503 820.388855,1419.083496 
	C820.181885,1422.298706 819.987061,1423.912598 819.987000,1425.526489 
	C819.982056,1633.350952 819.991394,1841.175537 820.000000,2049.000000 
	C818.611084,2049.000000 817.222229,2049.000000 815.416626,2049.000000 
z"/>
<path fill="#000000" opacity="1.000000" stroke="none" 
	d="
M1087.531372,0.999991 
	C1086.568481,2.567360 1085.415161,4.624866 1083.659546,5.621157 
	C1073.620239,11.318159 1063.388184,16.674070 1053.319214,22.319767 
	C1044.393921,27.324173 1035.563599,32.500771 1026.750122,37.700912 
	C1016.802551,43.570271 1006.994019,49.678524 996.983887,55.437626 
	C990.453064,59.194973 983.567749,62.335285 977.027527,66.077614 
	C968.904602,70.725616 960.992798,75.741325 952.949890,80.531166 
	C950.193481,82.172722 947.267029,83.527977 944.503052,85.157921 
	C929.647400,93.918648 914.849731,102.778114 899.970093,111.497757 
	C888.755066,118.069923 877.438965,124.469398 866.182068,130.970383 
	C851.214844,139.614044 836.305420,148.358780 821.287537,156.913330 
	C810.450745,163.086212 799.383850,168.858017 788.593201,175.108383 
	C778.916931,180.713257 769.604431,186.949005 759.898499,192.498901 
	C750.040833,198.135468 739.817200,203.128571 729.903687,208.671555 
	C720.488403,213.936005 711.233521,219.491257 701.975159,225.030853 
	C697.664124,227.610306 693.630310,230.664871 689.260437,233.131424 
	C682.456055,236.972137 675.408203,240.380081 668.582825,244.185318 
	C661.872803,247.926239 655.336792,251.977844 648.678894,255.814102 
	C637.770508,262.099457 626.776489,268.237457 615.909912,274.593689 
	C605.825073,280.492645 595.947205,286.748199 585.819946,292.571655 
	C572.292236,300.350525 558.534424,307.729828 545.018921,315.529175 
	C531.747559,323.187622 518.703674,331.239410 505.464691,338.955078 
	C498.814331,342.830902 491.907227,346.263489 485.197906,350.041626 
	C477.634369,354.300781 470.124603,358.658936 462.662811,363.094055 
	C456.246765,366.907684 450.003357,371.014252 443.555176,374.770813 
	C432.059326,381.467896 420.458649,387.984833 408.916779,394.603149 
	C400.029053,399.699554 391.135681,404.787231 382.299408,409.971832 
	C376.376617,413.446991 370.656586,417.278229 364.654938,420.605896 
	C354.979370,425.970581 345.102844,430.971985 335.399536,436.287964 
	C331.030609,438.681488 326.883362,441.478027 322.619720,444.065643 
	C315.634735,448.304932 308.673584,452.585175 301.635956,456.735535 
	C290.532440,463.283691 279.423248,469.825073 268.224030,476.207153 
	C258.196899,481.921326 247.960144,487.269684 237.968811,493.044098 
	C224.415894,500.876862 211.060562,509.051270 197.517166,516.900879 
	C190.758850,520.818054 183.709671,524.230347 176.903275,528.068237 
	C169.334488,532.336060 161.918640,536.874023 154.388535,541.211609 
	C144.177719,547.093384 133.874542,552.815857 123.698128,558.755981 
	C113.750076,564.562744 103.990204,570.693909 94.005730,576.435791 
	C80.338181,584.295837 66.476929,591.819092 52.809502,599.679382 
	C39.809364,607.155884 26.976002,614.921875 14.016948,622.470642 
	C10.020520,624.798706 5.852039,626.831360 1.381164,628.999634 
	C1.000000,419.720062 1.000000,210.440109 1.000000,1.000000 
	C363.020905,1.000000 725.041809,1.000000 1087.531372,0.999991 
z"/>
<path fill="#ED8E24" opacity="1.000000" stroke="none" 
	d="
M820.416626,2049.000000 
	C819.991394,1841.175537 819.982056,1633.350952 819.987000,1425.526489 
	C819.987061,1423.912598 820.181885,1422.298706 820.388855,1419.083496 
	C911.485840,1471.640503 1001.596924,1523.628662 1092.401123,1576.016724 
	C1092.643799,1573.904907 1092.943848,1572.512817 1092.943848,1571.120850 
	C1092.948975,1468.125366 1092.930420,1365.129761 1093.213867,1261.489258 
	C1104.625122,1254.480713 1115.754517,1248.148926 1126.843628,1241.746826 
	C1153.055908,1226.613647 1179.238892,1211.429443 1205.452515,1196.298706 
	C1241.459717,1175.514893 1277.479126,1154.752197 1313.503784,1133.998779 
	C1330.932007,1123.958496 1348.384277,1113.959961 1365.825684,1103.942383 
	C1365.883789,1105.937500 1365.992676,1107.932739 1365.992798,1109.927856 
	C1366.000977,1210.394165 1365.867798,1310.860840 1366.257568,1411.325684 
	C1366.287842,1419.131592 1362.740356,1422.343384 1357.149658,1425.398926 
	C1349.660156,1429.492188 1342.203735,1433.646362 1334.734985,1437.777710 
	C1326.591797,1442.281982 1318.332031,1446.590454 1310.337158,1451.344360 
	C1299.581421,1457.739502 1289.161377,1464.703613 1278.352905,1471.004150 
	C1268.658325,1476.655518 1258.519653,1481.541870 1248.784180,1487.126953 
	C1238.260742,1493.164062 1228.007568,1499.670410 1217.578613,1505.874634 
	C1211.220459,1509.657227 1204.746948,1513.245728 1198.335571,1516.939453 
	C1184.327026,1525.010498 1170.351074,1533.138672 1156.309326,1541.151855 
	C1148.971191,1545.339600 1141.474243,1549.248901 1134.134155,1553.433350 
	C1121.535034,1560.615845 1108.944092,1567.818115 1096.523438,1575.300659 
	C1095.111450,1576.151367 1094.143188,1578.841797 1094.110229,1580.699463 
	C1093.896973,1592.691650 1094.000977,1604.689453 1094.000977,1616.685425 
	C1094.000977,1706.322021 1093.939209,1795.958618 1094.153564,1885.594727 
	C1094.166504,1891.010498 1091.756348,1893.446777 1087.729492,1895.731323 
	C1079.577393,1900.356201 1071.560181,1905.218262 1063.426392,1909.876465 
	C1055.176880,1914.600952 1046.814087,1919.128174 1038.579102,1923.877197 
	C1034.106445,1926.456543 1029.860596,1929.428223 1025.398315,1932.026855 
	C1018.428894,1936.085571 1011.329346,1939.920288 1004.343994,1943.952393 
	C990.943237,1951.687622 977.614807,1959.548340 964.195068,1967.250244 
	C956.793152,1971.498291 949.219360,1975.446655 941.809937,1979.682129 
	C934.460510,1983.883423 927.264282,1988.352539 919.922852,1992.568359 
	C903.690979,2001.889160 887.382690,2011.077026 871.158020,2020.410278 
	C858.289368,2027.812866 845.477173,2035.314453 832.689026,2042.855591 
	C829.799561,2044.559448 827.114136,2046.609253 824.667358,2048.750000 
	C823.611084,2049.000000 822.222229,2049.000000 820.416626,2049.000000 
z"/>
<path fill="#000000" opacity="1.000000" stroke="none" 
	d="
M1912.000000,471.531342 
	C1908.157837,470.031342 1904.214111,468.236176 1900.492920,466.060516 
	C1890.447510,460.187225 1880.572510,454.020386 1870.489868,448.213135 
	C1856.888794,440.379181 1843.094116,432.881134 1829.499146,425.036896 
	C1816.396484,417.476807 1803.506714,409.547913 1790.401123,401.993042 
	C1780.839111,396.480927 1771.035400,391.389679 1761.420654,385.966797 
	C1754.146606,381.864105 1746.985229,377.560486 1739.804077,373.294983 
	C1735.487671,370.731049 1731.263428,368.011597 1726.939209,365.461426 
	C1715.683228,358.823517 1704.434814,352.171143 1693.107056,345.657532 
	C1684.084717,340.469604 1674.893799,335.574707 1665.878906,330.374359 
	C1654.850952,324.012695 1643.960938,317.412170 1632.947876,311.024170 
	C1626.689209,307.393890 1620.270508,304.040436 1613.982788,300.458893 
	C1602.202881,293.748962 1590.413940,287.052032 1578.727905,280.181213 
	C1569.849976,274.961456 1561.218018,269.321106 1552.309326,264.156433 
	C1541.198120,257.714996 1529.869019,251.650604 1518.720947,245.271530 
	C1509.599609,240.052170 1500.689453,234.461838 1491.535400,229.302414 
	C1478.586060,222.003967 1465.389893,215.139557 1452.503662,207.734100 
	C1441.882080,201.630005 1431.686646,194.783844 1421.062988,188.683502 
	C1411.273315,183.062027 1401.049072,178.199295 1391.234497,172.618546 
	C1383.803589,168.393173 1376.838989,163.352051 1369.446045,159.053894 
	C1359.069946,153.021347 1348.477051,147.362915 1338.002075,141.499374 
	C1334.048584,139.286392 1330.148193,136.976822 1326.254028,134.660172 
	C1319.206665,130.467682 1312.224487,126.164040 1305.138794,122.037689 
	C1291.944946,114.354164 1278.707031,106.745918 1265.466064,99.143562 
	C1258.776978,95.303009 1252.021240,91.578461 1245.331177,87.739464 
	C1236.570068,82.712006 1227.862671,77.590576 1219.098877,72.567657 
	C1202.773682,63.211006 1186.375610,53.980152 1170.103394,44.532646 
	C1160.324219,38.855003 1150.817139,32.707783 1141.020020,27.062593 
	C1131.118652,21.357311 1120.942627,16.129391 1111.021973,10.456137 
	C1106.297607,7.754413 1101.886475,4.504541 1097.666748,1.251499 
	C1369.240967,1.000000 1640.482056,1.000000 1912.000000,1.000000 
	C1912.000000,157.687454 1912.000000,314.375061 1912.000000,471.531342 
z"/>
<path fill="#ED8E24" opacity="1.000000" stroke="none" 
	d="
M1638.844727,631.193665 
	C1691.846558,600.515076 1744.835449,569.814453 1797.854492,539.165466 
	C1834.880249,517.761719 1871.946045,496.427094 1909.002075,475.075684 
	C1909.715698,474.664490 1910.529297,474.426727 1911.648071,474.054016 
	C1912.000000,579.354248 1912.000000,684.708435 1912.000000,790.531311 
	C1909.874512,791.701721 1907.558472,792.070435 1905.654663,793.159546 
	C1893.370239,800.186707 1881.200806,807.414551 1868.944702,814.491699 
	C1857.486206,821.108276 1845.904907,827.514343 1834.493042,834.209534 
	C1824.679688,839.966858 1815.132690,846.180847 1805.277710,851.863220 
	C1795.353516,857.585571 1785.147583,862.817383 1775.154053,868.422607 
	C1767.278687,872.839844 1759.565063,877.544556 1751.731323,882.037170 
	C1741.642578,887.822876 1731.449585,893.428772 1721.404663,899.288879 
	C1711.210815,905.235962 1701.154419,911.418213 1691.015625,917.459961 
	C1681.812500,922.944153 1672.637817,928.480225 1663.341187,933.802124 
	C1655.532593,938.272095 1647.566284,942.466614 1639.314209,946.355164 
	C1638.956055,850.673889 1638.956421,755.420410 1638.946411,660.166992 
	C1638.945312,650.509216 1638.880127,640.851440 1638.844727,631.193665 
z"/>
<path fill="#E55B2D" opacity="1.000000" stroke="none" 
	d="
M1.000010,632.468628 
	C10.024035,636.912476 19.147081,641.652527 28.054466,646.768066 
	C61.811226,666.154724 95.509651,685.643127 129.208038,705.131165 
	C164.469650,725.523438 199.691299,745.984863 234.961411,766.362366 
	C247.638077,773.686401 260.405060,780.854004 273.515198,788.662354 
	C273.934814,791.561035 274.000580,793.890503 274.000732,796.219910 
	C274.006989,899.094177 274.007446,1001.968506 274.008636,1104.842773 
	C265.149078,1099.824585 256.233093,1094.902832 247.444763,1089.762939 
	C237.248062,1083.799194 227.220901,1077.545044 217.010834,1071.604736 
	C209.576355,1067.279419 201.925217,1063.328491 194.441315,1059.085938 
	C183.468933,1052.865967 172.547897,1046.554810 161.627472,1040.243652 
	C153.718506,1035.672852 145.886505,1030.967896 137.947952,1026.449707 
	C125.221306,1019.206360 112.375298,1012.171143 99.696022,1004.846680 
	C92.006729,1000.404846 84.553322,995.556091 76.958191,990.949097 
	C74.319267,989.348389 71.552620,987.959961 68.878830,986.414795 
	C56.998402,979.549316 45.105206,972.705322 33.266266,965.768799 
	C24.116293,960.407776 15.063931,954.879944 5.902116,949.539612 
	C4.695703,948.836426 3.097177,948.805908 1.340120,948.731934 
	C1.000000,843.645752 1.000000,738.291565 1.000010,632.468628 
z"/>
<path fill="#ED8E24" opacity="1.000000" stroke="none" 
	d="
M274.353241,1104.798096 
	C274.007446,1001.968506 274.006989,899.094177 274.000732,796.219910 
	C274.000580,793.890503 273.934814,791.561035 273.840942,788.802612 
	C286.978424,780.943604 300.230194,773.610291 313.360046,766.064880 
	C347.140503,746.652161 380.872559,727.155212 414.613281,707.673462 
	C445.614594,689.773438 476.592102,671.832214 507.597992,653.940125 
	C543.650696,633.135681 579.727356,612.372742 615.785278,591.577271 
	C646.218506,574.025696 676.643250,556.459167 707.065430,538.888428 
	C743.254761,517.986816 779.437500,497.073669 815.622986,476.165405 
	C877.470886,440.429321 939.311218,404.680237 1001.169861,368.962738 
	C1030.152832,352.227753 1059.168701,335.549408 1088.181641,318.866150 
	C1089.463013,318.129272 1090.863525,317.599274 1092.587036,317.430267 
	C1092.971313,420.185547 1092.968384,522.483459 1093.028076,624.781372 
	C1093.029663,627.553528 1093.707031,630.325378 1094.069092,633.097351 
	C1094.046387,707.571838 1094.019775,782.046326 1094.002930,856.520813 
	C1093.996216,886.010925 1094.011108,915.501038 1093.701660,945.533447 
	C1092.053223,946.744751 1090.681885,947.348572 1089.391479,948.092957 
	C1073.525757,957.245483 1057.677368,966.428223 1041.813477,975.584290 
	C1007.922852,995.144775 974.026917,1014.696106 940.131042,1034.247559 
	C908.831177,1052.301392 877.497131,1070.296509 846.247498,1088.437012 
	C837.641968,1093.432495 829.284363,1098.855225 820.812988,1104.081787 
	C820.533203,1101.638916 820.009644,1099.196167 820.008667,1096.753174 
	C819.967590,996.967163 819.975647,897.181213 819.960266,797.395203 
	C819.959900,795.134033 819.761414,792.872803 819.614014,789.731140 
	C817.236633,790.718933 815.539856,791.212891 814.054321,792.072083 
	C779.187378,812.237488 744.376404,832.499817 709.486267,852.625000 
	C666.523193,877.407104 623.493286,902.073181 580.502319,926.807007 
	C570.259644,932.699951 560.028320,938.614258 549.867981,944.647034 
	C548.391113,945.523926 547.341858,947.121033 546.013062,948.727295 
	C540.340637,951.903259 534.711182,954.663513 529.171326,957.593079 
	C524.646912,959.985718 520.207153,962.541992 515.771362,965.097717 
	C511.886139,967.336304 508.053101,969.665588 504.206909,971.971375 
	C497.769562,975.830505 491.358459,979.733704 484.902893,983.562073 
	C476.005035,988.838928 467.163544,994.219788 458.136749,999.268005 
	C448.262817,1004.789795 438.078644,1009.762146 428.262451,1015.380554 
	C417.875641,1021.325623 407.822418,1027.850464 397.510345,1033.930054 
	C390.019836,1038.346191 382.294617,1042.362793 374.771545,1046.725586 
	C370.163635,1049.397827 365.817719,1052.520996 361.214417,1055.201904 
	C354.811920,1058.930542 348.225037,1062.342163 341.812073,1066.053589 
	C327.850220,1074.134033 313.974121,1082.362671 300.012329,1090.443115 
	C291.623444,1095.298340 283.139252,1099.988892 274.353241,1104.798096 
z"/>
<path fill="#E55B2D" opacity="1.000000" stroke="none" 
	d="
M1094.408325,633.231689 
	C1093.707031,630.325378 1093.029663,627.553528 1093.028076,624.781372 
	C1092.968384,522.483459 1092.971313,420.185547 1092.950684,317.412903 
	C1100.951172,321.311707 1109.058472,325.526062 1116.967285,330.084534 
	C1170.200317,360.767151 1223.388428,391.527679 1276.596558,422.253601 
	C1341.180542,459.548615 1405.769043,496.836060 1470.357300,534.123596 
	C1520.098755,562.839783 1569.841797,591.553162 1619.587280,620.262207 
	C1625.783081,623.837952 1631.998657,627.379395 1638.524902,631.065186 
	C1638.880127,640.851440 1638.945312,650.509216 1638.946411,660.166992 
	C1638.956421,755.420410 1638.956055,850.673889 1638.958496,946.385864 
	C1632.847656,943.602600 1626.676270,940.468689 1620.640625,937.092529 
	C1612.440063,932.505249 1604.319946,927.772644 1596.207764,923.029602 
	C1585.862061,916.980469 1575.622803,910.746216 1565.214355,904.807861 
	C1558.490356,900.971497 1551.431763,897.719299 1544.728394,893.849854 
	C1536.594849,889.154663 1528.718506,884.016235 1520.652710,879.200562 
	C1514.745605,875.673828 1508.699829,872.380554 1502.738525,868.943665 
	C1491.820068,862.648743 1480.936768,856.292786 1470.004517,850.021790 
	C1460.470215,844.552673 1450.838745,839.251404 1441.341431,833.719421 
	C1430.503174,827.406433 1419.843750,820.784302 1408.962280,814.548340 
	C1398.446655,808.521912 1387.707153,802.887268 1377.143188,796.943420 
	C1370.250366,793.065125 1363.489136,788.952271 1356.679810,784.926208 
	C1348.880127,780.314636 1341.125732,775.625549 1333.291382,771.073914 
	C1323.373047,765.311584 1313.416138,759.614624 1303.433838,753.963806 
	C1295.989746,749.749817 1288.417236,745.760193 1281.014404,741.476196 
	C1273.402222,737.070984 1265.963501,732.366699 1258.379883,727.910828 
	C1251.486572,723.860535 1244.494629,719.978271 1237.557617,716.002258 
	C1233.534546,713.696350 1229.531372,711.355774 1225.523804,709.023193 
	C1218.103394,704.704407 1210.684448,700.382874 1203.268188,696.057007 
	C1192.257935,689.634827 1181.276245,683.163208 1170.234985,676.794861 
	C1157.838501,669.644836 1145.360962,662.635559 1132.971558,655.473389 
	C1121.650513,648.928833 1110.404541,642.254639 1099.113403,635.658020 
	C1097.695679,634.829773 1096.204590,634.127014 1094.408325,633.231689 
z"/>
<path fill="#F8BF3C" opacity="1.000000" stroke="none" 
	d="
M821.078247,1104.304810 
	C829.284363,1098.855225 837.641968,1093.432495 846.247498,1088.437012 
	C877.497131,1070.296509 908.831177,1052.301392 940.131042,1034.247559 
	C974.026917,1014.696106 1007.922852,995.144775 1041.813477,975.584290 
	C1057.677368,966.428223 1073.525757,957.245483 1089.391479,948.092957 
	C1090.681885,947.348572 1092.053223,946.744751 1093.740234,945.995300 
	C1109.636719,954.927856 1125.194092,963.916565 1140.717896,972.963013 
	C1149.652222,978.169495 1158.513306,983.501831 1167.442017,988.717896 
	C1176.163696,993.812988 1184.919678,998.849548 1193.678467,1003.880676 
	C1205.229736,1010.515930 1216.773438,1017.165405 1228.369751,1023.721313 
	C1234.771973,1027.340698 1241.358643,1030.637817 1247.714478,1034.334229 
	C1258.617310,1040.675293 1269.333740,1047.337646 1280.258423,1053.640015 
	C1293.070923,1061.031494 1306.073242,1068.093140 1318.897339,1075.465088 
	C1329.627075,1081.632935 1340.168213,1088.128662 1350.895508,1094.300903 
	C1355.338989,1096.857666 1360.069824,1098.911255 1364.615356,1101.297729 
	C1365.225708,1101.618164 1365.515259,1102.549927 1365.889404,1103.570557 
	C1348.384277,1113.959961 1330.932007,1123.958496 1313.503784,1133.998779 
	C1277.479126,1154.752197 1241.459717,1175.514893 1205.452515,1196.298706 
	C1179.238892,1211.429443 1153.055908,1226.613647 1126.843628,1241.746826 
	C1115.754517,1248.148926 1104.625122,1254.480713 1093.200195,1261.035156 
	C1066.173950,1245.872314 1039.472534,1230.499634 1012.746338,1215.170166 
	C983.448181,1198.365479 954.080688,1181.681152 924.829224,1164.795654 
	C895.584961,1147.914062 866.445251,1130.851318 837.263428,1113.861572 
	C831.947388,1110.766479 826.649658,1107.639893 821.078247,1104.304810 
z"/>
</svg>